<mxfile host="app.diagrams.net" modified="2023-07-31T17:04:53.517Z" agent="Mozilla/5.0 (Windows NT 10.0; Win64; x64) AppleWebKit/537.36 (KHTML, like Gecko) Chrome/115.0.0.0 Safari/537.36" etag="huEjgWpEDgLEDpP5NT88" version="21.6.5" type="device">
  <diagram name="Page-1" id="BWHNkNiEs-IkO5fIKNXb">
    <mxGraphModel dx="1434" dy="725" grid="1" gridSize="10" guides="1" tooltips="1" connect="1" arrows="1" fold="1" page="1" pageScale="1" pageWidth="850" pageHeight="1100" math="0" shadow="0">
      <root>
        <mxCell id="0" />
        <mxCell id="1" parent="0" />
        <mxCell id="5qmP-6OTH-ESlq7DOyJe-29" value="" style="edgeStyle=orthogonalEdgeStyle;rounded=0;orthogonalLoop=1;jettySize=auto;html=1;" edge="1" parent="1" source="5qmP-6OTH-ESlq7DOyJe-1" target="5qmP-6OTH-ESlq7DOyJe-26">
          <mxGeometry relative="1" as="geometry" />
        </mxCell>
        <mxCell id="5qmP-6OTH-ESlq7DOyJe-1" value="START" style="rounded=1;whiteSpace=wrap;html=1;" vertex="1" parent="1">
          <mxGeometry x="170" y="50" width="120" height="60" as="geometry" />
        </mxCell>
        <mxCell id="5qmP-6OTH-ESlq7DOyJe-2" value="STOP" style="rounded=1;whiteSpace=wrap;html=1;" vertex="1" parent="1">
          <mxGeometry x="380" y="540" width="120" height="60" as="geometry" />
        </mxCell>
        <mxCell id="5qmP-6OTH-ESlq7DOyJe-3" value="Print numbers from 1 to the number&lt;br&gt;the given from user input&lt;br&gt;&lt;br&gt;user = 5&lt;br&gt;a = 5&lt;br&gt;output: 1 2 3 4 5 6 finish&lt;br&gt;" style="text;html=1;strokeColor=none;fillColor=none;align=center;verticalAlign=middle;whiteSpace=wrap;rounded=0;" vertex="1" parent="1">
          <mxGeometry x="270" y="20" width="310" height="150" as="geometry" />
        </mxCell>
        <mxCell id="5qmP-6OTH-ESlq7DOyJe-11" value="" style="edgeStyle=orthogonalEdgeStyle;rounded=0;orthogonalLoop=1;jettySize=auto;html=1;" edge="1" parent="1" source="5qmP-6OTH-ESlq7DOyJe-4" target="5qmP-6OTH-ESlq7DOyJe-8">
          <mxGeometry relative="1" as="geometry" />
        </mxCell>
        <mxCell id="5qmP-6OTH-ESlq7DOyJe-4" value="a = 1" style="rounded=0;whiteSpace=wrap;html=1;" vertex="1" parent="1">
          <mxGeometry x="170" y="250" width="120" height="60" as="geometry" />
        </mxCell>
        <mxCell id="5qmP-6OTH-ESlq7DOyJe-21" value="" style="edgeStyle=orthogonalEdgeStyle;rounded=0;orthogonalLoop=1;jettySize=auto;html=1;" edge="1" parent="1" source="5qmP-6OTH-ESlq7DOyJe-5" target="5qmP-6OTH-ESlq7DOyJe-6">
          <mxGeometry relative="1" as="geometry" />
        </mxCell>
        <mxCell id="5qmP-6OTH-ESlq7DOyJe-5" value="a" style="shape=document;whiteSpace=wrap;html=1;boundedLbl=1;" vertex="1" parent="1">
          <mxGeometry x="180" y="490" width="100" height="50" as="geometry" />
        </mxCell>
        <mxCell id="5qmP-6OTH-ESlq7DOyJe-18" style="edgeStyle=orthogonalEdgeStyle;rounded=0;orthogonalLoop=1;jettySize=auto;html=1;" edge="1" parent="1" source="5qmP-6OTH-ESlq7DOyJe-6">
          <mxGeometry relative="1" as="geometry">
            <mxPoint x="230" y="650" as="targetPoint" />
          </mxGeometry>
        </mxCell>
        <mxCell id="5qmP-6OTH-ESlq7DOyJe-6" value="a = a + 1" style="rounded=0;whiteSpace=wrap;html=1;" vertex="1" parent="1">
          <mxGeometry x="175" y="570" width="110" height="50" as="geometry" />
        </mxCell>
        <mxCell id="5qmP-6OTH-ESlq7DOyJe-16" value="" style="edgeStyle=orthogonalEdgeStyle;rounded=0;orthogonalLoop=1;jettySize=auto;html=1;" edge="1" parent="1" source="5qmP-6OTH-ESlq7DOyJe-8" target="5qmP-6OTH-ESlq7DOyJe-5">
          <mxGeometry relative="1" as="geometry" />
        </mxCell>
        <mxCell id="5qmP-6OTH-ESlq7DOyJe-19" value="yes" style="edgeLabel;html=1;align=center;verticalAlign=middle;resizable=0;points=[];" vertex="1" connectable="0" parent="5qmP-6OTH-ESlq7DOyJe-16">
          <mxGeometry x="0.4" relative="1" as="geometry">
            <mxPoint as="offset" />
          </mxGeometry>
        </mxCell>
        <mxCell id="5qmP-6OTH-ESlq7DOyJe-24" style="edgeStyle=orthogonalEdgeStyle;rounded=0;orthogonalLoop=1;jettySize=auto;html=1;" edge="1" parent="1" source="5qmP-6OTH-ESlq7DOyJe-8">
          <mxGeometry relative="1" as="geometry">
            <mxPoint x="380" y="385" as="targetPoint" />
          </mxGeometry>
        </mxCell>
        <mxCell id="5qmP-6OTH-ESlq7DOyJe-25" value="no" style="edgeLabel;html=1;align=center;verticalAlign=middle;resizable=0;points=[];" vertex="1" connectable="0" parent="5qmP-6OTH-ESlq7DOyJe-24">
          <mxGeometry x="0.0952" y="1" relative="1" as="geometry">
            <mxPoint as="offset" />
          </mxGeometry>
        </mxCell>
        <mxCell id="5qmP-6OTH-ESlq7DOyJe-8" value="a &amp;lt;= user&amp;nbsp;&lt;br&gt;?" style="ellipse;whiteSpace=wrap;html=1;aspect=fixed;" vertex="1" parent="1">
          <mxGeometry x="190" y="345" width="80" height="80" as="geometry" />
        </mxCell>
        <mxCell id="5qmP-6OTH-ESlq7DOyJe-9" value="" style="shape=link;html=1;rounded=0;" edge="1" parent="1">
          <mxGeometry width="100" relative="1" as="geometry">
            <mxPoint x="185" y="650" as="sourcePoint" />
            <mxPoint x="285" y="650" as="targetPoint" />
          </mxGeometry>
        </mxCell>
        <mxCell id="5qmP-6OTH-ESlq7DOyJe-23" style="edgeStyle=orthogonalEdgeStyle;rounded=0;orthogonalLoop=1;jettySize=auto;html=1;" edge="1" parent="1" source="5qmP-6OTH-ESlq7DOyJe-22" target="5qmP-6OTH-ESlq7DOyJe-2">
          <mxGeometry relative="1" as="geometry" />
        </mxCell>
        <mxCell id="5qmP-6OTH-ESlq7DOyJe-22" value="&quot;finish&quot;" style="shape=document;whiteSpace=wrap;html=1;boundedLbl=1;" vertex="1" parent="1">
          <mxGeometry x="390" y="375" width="100" height="50" as="geometry" />
        </mxCell>
        <mxCell id="5qmP-6OTH-ESlq7DOyJe-31" value="" style="edgeStyle=orthogonalEdgeStyle;rounded=0;orthogonalLoop=1;jettySize=auto;html=1;" edge="1" parent="1" source="5qmP-6OTH-ESlq7DOyJe-26" target="5qmP-6OTH-ESlq7DOyJe-4">
          <mxGeometry relative="1" as="geometry" />
        </mxCell>
        <mxCell id="5qmP-6OTH-ESlq7DOyJe-26" value="user" style="shape=card;whiteSpace=wrap;html=1;" vertex="1" parent="1">
          <mxGeometry x="190" y="150" width="80" height="50" as="geometry" />
        </mxCell>
      </root>
    </mxGraphModel>
  </diagram>
</mxfile>
